<svg width="175" height="135" viewBox="0 0 175 135" fill="none" xmlns="http://www.w3.org/2000/svg">
<path d="M10.5625 37.8594C10.6562 36.3594 11.1094 34.9531 11.9219 33.6406C12.7344 32.2969 13.6875 31.0469 14.7812 29.8906C15.9062 28.7344 17.0781 27.6719 18.2969 26.7031C19.5469 25.7031 20.6406 24.7812 21.5781 23.9375C21.5781 23.75 21.4844 23.5 21.2969 23.1875C21.1406 22.875 21.0156 22.3281 20.9219 21.5469C20.9219 20.1719 21.2344 18.9219 21.8594 17.7969C22.4844 16.6406 23.2969 15.6719 24.2969 14.8906C25.3281 14.0781 26.4688 13.4531 27.7188 13.0156C29 12.5781 30.2969 12.3594 31.6094 12.3594C32.1719 12.3594 32.6406 12.5781 33.0156 13.0156C33.3906 13.4219 33.6875 13.9219 33.9062 14.5156C34.125 15.1094 34.2656 15.7187 34.3281 16.3438C34.4219 16.9688 34.4688 17.4844 34.4688 17.8906H32.8281C32.8281 17.5469 32.7812 17.1875 32.6875 16.8125C32.625 16.4375 32.5 16.1094 32.3125 15.8281C32.1562 15.5156 31.9375 15.2656 31.6562 15.0781C31.4062 14.8594 31.0781 14.75 30.6719 14.75C29.9531 14.75 29.1719 14.9531 28.3281 15.3594C27.4844 15.7344 26.6875 16.2344 25.9375 16.8594C25.2188 17.4531 24.6094 18.1406 24.1094 18.9219C23.6094 19.7031 23.3594 20.4844 23.3594 21.2656C23.3594 21.6719 23.4844 21.9688 23.7344 22.1562C24.0156 22.3125 24.3594 22.4219 24.7656 22.4844C25.2031 22.5469 25.6562 22.5781 26.125 22.5781C26.5938 22.5781 27.0312 22.6094 27.4375 22.6719C27.875 22.7031 28.2188 22.8125 28.4688 23C28.75 23.1875 28.8906 23.4844 28.8906 23.8906C28.8906 24.1406 28.8594 24.3906 28.7969 24.6406C28.7344 24.8594 28.5469 25.0469 28.2344 25.2031C26.4219 25.6719 24.7812 26.2344 23.3125 26.8906C21.875 27.5156 20.5625 28.2812 19.375 29.1875C18.1875 30.0625 17.0781 31.1094 16.0469 32.3281C15.0469 33.5469 14.0625 35 13.0938 36.6875C13.0938 36.75 13.0781 36.9062 13.0469 37.1562C13.0469 37.4062 13.0469 37.5625 13.0469 37.625C13.0469 38.75 13.3594 39.6094 13.9844 40.2031C14.6406 40.7656 15.5 41.0469 16.5625 41.0469C17.75 41.0469 19.0781 40.8594 20.5469 40.4844C22.0469 40.1094 23.5 39.7031 24.9062 39.2656C26.3125 38.8281 27.5938 38.4219 28.75 38.0469C29.9375 37.6719 30.8125 37.4844 31.375 37.4844C31.3438 38.1719 31.0469 38.8281 30.4844 39.4531C29.9219 40.0781 29.1875 40.6562 28.2812 41.1875C27.375 41.6875 26.3438 42.1406 25.1875 42.5469C24.0625 42.9531 22.9062 43.2812 21.7188 43.5312C20.5625 43.7812 19.4219 43.9531 18.2969 44.0469C17.2031 44.1406 16.2344 44.1406 15.3906 44.0469C14.5781 44.0469 13.8594 43.8594 13.2344 43.4844C12.6406 43.1094 12.1406 42.625 11.7344 42.0312C11.3594 41.4375 11.0625 40.7812 10.8438 40.0625C10.6562 39.3125 10.5625 38.5781 10.5625 37.8594ZM30.6719 39.7344C30.6719 39.5156 30.6875 39.1875 30.7188 38.75C30.7812 38.2812 30.8438 37.8281 30.9062 37.3906C30.9688 36.9531 31.0312 36.5625 31.0938 36.2188C31.1562 35.8438 31.2188 35.6094 31.2812 35.5156L39.8125 18.4531C39.9375 18.2031 40.1719 17.8594 40.5156 17.4219C40.8906 16.9531 41.2812 16.4844 41.6875 16.0156C42.125 15.5156 42.5469 15.0625 42.9531 14.6562C43.3906 14.2187 43.75 13.875 44.0312 13.625C44.25 13.6875 44.4062 13.7969 44.5 13.9531C44.5938 14.1094 44.6562 14.2969 44.6875 14.5156C44.7188 14.7031 44.7188 14.8906 44.6875 15.0781C44.6875 15.2656 44.6875 15.4219 44.6875 15.5469C44.6875 15.7031 44.6875 15.9219 44.6875 16.2031C44.6875 16.4844 44.6719 16.625 44.6406 16.625C44.3281 17.4688 43.8438 18.4688 43.1875 19.625C42.5312 20.7812 41.7969 22.0156 40.9844 23.3281C40.1719 24.6406 39.3281 26.0156 38.4531 27.4531C37.6094 28.8594 36.8281 30.2656 36.1094 31.6719C35.4219 33.0469 34.8438 34.375 34.375 35.6562C33.9375 36.9375 33.7188 38.1094 33.7188 39.1719C33.7188 39.7344 33.875 40.1875 34.1875 40.5312C34.5312 40.8438 34.8906 41.125 35.2656 41.375C35.6406 41.625 35.9844 41.875 36.2969 42.125C36.6406 42.375 36.8125 42.7188 36.8125 43.1562C36.8125 43.4375 36.6875 43.6562 36.4375 43.8125C36.1875 43.9375 35.8906 44 35.5469 44C34.2344 44 33.0938 43.6406 32.125 42.9219C31.1562 42.1719 30.6719 41.1094 30.6719 39.7344ZM42.625 39.7344C42.625 39.5156 42.6406 39.1875 42.6719 38.75C42.7344 38.2812 42.7969 37.8281 42.8594 37.3906C42.9219 36.9531 42.9844 36.5625 43.0469 36.2188C43.1094 35.8438 43.1719 35.6094 43.2344 35.5156L51.7656 18.4531C51.8906 18.2031 52.125 17.8594 52.4688 17.4219C52.8438 16.9531 53.2344 16.4844 53.6406 16.0156C54.0781 15.5156 54.5 15.0625 54.9062 14.6562C55.3438 14.2187 55.7031 13.875 55.9844 13.625C56.2031 13.6875 56.3594 13.7969 56.4531 13.9531C56.5469 14.1094 56.6094 14.2969 56.6406 14.5156C56.6719 14.7031 56.6719 14.8906 56.6406 15.0781C56.6406 15.2656 56.6406 15.4219 56.6406 15.5469C56.6406 15.7031 56.6406 15.9219 56.6406 16.2031C56.6406 16.4844 56.625 16.625 56.5938 16.625C56.2812 17.4688 55.7969 18.4688 55.1406 19.625C54.4844 20.7812 53.75 22.0156 52.9375 23.3281C52.125 24.6406 51.2812 26.0156 50.4062 27.4531C49.5625 28.8594 48.7812 30.2656 48.0625 31.6719C47.375 33.0469 46.7969 34.375 46.3281 35.6562C45.8906 36.9375 45.6719 38.1094 45.6719 39.1719C45.6719 39.7344 45.8281 40.1875 46.1406 40.5312C46.4844 40.8438 46.8438 41.125 47.2188 41.375C47.5938 41.625 47.9375 41.875 48.25 42.125C48.5938 42.375 48.7656 42.7188 48.7656 43.1562C48.7656 43.4375 48.6406 43.6562 48.3906 43.8125C48.1406 43.9375 47.8438 44 47.5 44C46.1875 44 45.0469 43.6406 44.0781 42.9219C43.1094 42.1719 42.625 41.1094 42.625 39.7344ZM55.0469 41.5625C54.5156 40.375 54.2812 39.2188 54.3438 38.0938C54.4062 36.9375 54.6562 35.8594 55.0938 34.8594C55.5625 33.8281 56.1562 32.9062 56.875 32.0938C57.625 31.25 58.4219 30.5312 59.2656 29.9375C60.1094 29.3125 60.9531 28.8438 61.7969 28.5312C62.6719 28.2188 63.4375 28.0938 64.0938 28.1562C64.75 28.1875 65.2656 28.4219 65.6406 28.8594C66.0156 29.2969 66.1406 29.9688 66.0156 30.875C66.0156 32.0938 65.625 33.1562 64.8438 34.0625C64.0938 34.9688 63.25 35.7812 62.3125 36.5C61.4062 37.2188 60.5625 37.875 59.7812 38.4688C59.0312 39.0312 58.6562 39.5625 58.6562 40.0625C58.6562 40.3438 58.8125 40.5625 59.125 40.7188C59.4688 40.875 59.8594 41 60.2969 41.0938C60.7344 41.1562 61.1719 41.2031 61.6094 41.2344C62.0469 41.2656 62.3594 41.2969 62.5469 41.3281C65.4844 40.7031 67.6875 40.3281 69.1562 40.2031C70.625 40.0469 71.5469 40.0625 71.9219 40.25C72.2969 40.4062 72.2188 40.6719 71.6875 41.0469C71.1875 41.3906 70.4062 41.7656 69.3438 42.1719C68.2812 42.5469 67.0469 42.8906 65.6406 43.2031C64.2344 43.5156 62.8438 43.7031 61.4688 43.7656C60.0938 43.7969 58.8125 43.6562 57.625 43.3438C56.4688 43.0312 55.6094 42.4375 55.0469 41.5625ZM63.25 30.875C62.625 30.875 62.0312 31.0469 61.4688 31.3906C60.9062 31.7344 60.3906 32.1719 59.9219 32.7031C59.4844 33.2031 59.1094 33.7656 58.7969 34.3906C58.4844 34.9844 58.25 35.5469 58.0938 36.0781C58.1562 36.1094 58.2031 36.125 58.2344 36.125H58.375C58.8125 36.125 59.3125 35.9375 59.875 35.5625C60.4375 35.1875 60.9688 34.7344 61.4688 34.2031C61.9688 33.6406 62.3906 33.0625 62.7344 32.4688C63.0781 31.875 63.25 31.3438 63.25 30.875ZM71.5469 41.8906C71.5469 41.6094 71.5469 41.3906 71.5469 41.2344C71.5469 41.0781 71.5625 40.9375 71.5938 40.8125C71.6562 40.6562 71.7344 40.5 71.8281 40.3438C71.9219 40.1875 72.0469 39.9844 72.2031 39.7344C72.4531 39.2969 72.9219 38.5312 73.6094 37.4375C74.2969 36.3438 75.0312 35.1875 75.8125 33.9688C76.5938 32.75 77.3281 31.5938 78.0156 30.5C78.7344 29.4062 79.2344 28.6406 79.5156 28.2031C79.5469 28.1719 79.625 28.1562 79.75 28.1562C79.9062 28.1562 80.0156 28.1562 80.0781 28.1562C80.1406 28.1562 80.25 28.1562 80.4062 28.1562C80.5625 28.1562 80.6562 28.1719 80.6875 28.2031C80.7188 28.2344 80.7812 28.3125 80.875 28.4375C81 28.5625 81.125 28.7031 81.25 28.8594C81.4062 28.9844 81.5312 29.1094 81.625 29.2344C81.75 29.3594 81.8438 29.4219 81.9062 29.4219C82.1875 29.4219 82.4844 29.3281 82.7969 29.1406C83.1094 28.9531 83.4219 28.75 83.7344 28.5312C84.0781 28.2812 84.4219 28.0625 84.7656 27.875C85.1094 27.6875 85.4688 27.5938 85.8438 27.5938C86.25 27.5938 86.625 27.6875 86.9688 27.875C87.3125 28.0625 87.6094 28.2969 87.8594 28.5781C88.1094 28.8594 88.2969 29.1719 88.4219 29.5156C88.5781 29.8594 88.6562 30.2031 88.6562 30.5469C88.6562 31.2656 88.5469 31.9531 88.3281 32.6094C88.1406 33.2656 87.9219 33.9219 87.6719 34.5781C87.4219 35.2031 87.1875 35.8438 86.9688 36.5C86.7812 37.125 86.6875 37.7812 86.6875 38.4688C86.6875 39.1562 86.7656 39.6562 86.9219 39.9688C87.0781 40.25 87.5156 40.3906 88.2344 40.3906C89.0781 40.3906 89.875 40.2656 90.625 40.0156C91.4062 39.7656 92.2031 39.6406 93.0156 39.6406C93.0156 40.3906 92.7812 41.0156 92.3125 41.5156C91.875 42.0156 91.3125 42.4219 90.625 42.7344C89.9688 43.0156 89.25 43.2188 88.4688 43.3438C87.7188 43.4375 87.0312 43.4844 86.4062 43.4844C85.2188 43.4844 84.3438 43.1562 83.7812 42.5C83.25 41.8125 82.9844 40.9062 82.9844 39.7812C82.9844 39.0312 83.1094 38.3281 83.3594 37.6719C83.6406 37.0156 83.9375 36.375 84.25 35.75C84.5938 35.125 84.9062 34.5 85.1875 33.875C85.4688 33.25 85.6094 32.5781 85.6094 31.8594C85.6094 31.6719 85.5781 31.4219 85.5156 31.1094C85.4531 30.7969 85.25 30.6406 84.9062 30.6406C83.875 30.6406 82.9375 30.9688 82.0938 31.625C81.2812 32.2812 80.5312 33.1094 79.8438 34.1094C79.1875 35.1094 78.5781 36.1875 78.0156 37.3438C77.4844 38.5 76.9688 39.5781 76.4688 40.5781C76 41.5781 75.5469 42.4062 75.1094 43.0625C74.6719 43.7188 74.2188 44.0469 73.75 44.0469C73.0938 44.0469 72.5625 43.8438 72.1562 43.4375C71.75 43.0312 71.5469 42.5156 71.5469 41.8906Z" fill="#F2F2F2"/>
<path d="M7.46875 116.156C8.46875 114.531 9.625 113.078 10.9375 111.797C12.25 110.547 13.5938 109.359 14.9688 108.234C16.375 107.109 17.7656 106.016 19.1406 104.953C20.5156 103.891 21.7812 102.75 22.9375 101.531C24.125 100.312 25.1406 98.9688 25.9844 97.5C26.8281 96 27.4062 94.2656 27.7188 92.2969C27.7188 92.2344 27.7031 92.1406 27.6719 92.0156C27.6719 91.8594 27.6719 91.75 27.6719 91.6875C26.9531 92.5312 26.0781 93.4844 25.0469 94.5469C24.0469 95.6094 22.9531 96.6094 21.7656 97.5469C20.6094 98.4844 19.3906 99.2656 18.1094 99.8906C16.8281 100.516 15.5781 100.828 14.3594 100.828C14.0469 100.828 13.6406 100.812 13.1406 100.781C12.6719 100.719 12.2031 100.609 11.7344 100.453C11.2656 100.297 10.8594 100.078 10.5156 99.7969C10.1719 99.5156 10 99.1406 10 98.6719C10 98.2656 10.1094 97.6406 10.3281 96.7969C10.5469 95.9531 10.8438 95.0156 11.2188 93.9844C11.5938 92.9531 12.0156 91.9062 12.4844 90.8438C12.9531 89.7812 13.4531 88.8125 13.9844 87.9375C14.5156 87.0625 15.0312 86.3438 15.5312 85.7812C16.0625 85.2188 16.5469 84.9375 16.9844 84.9375C17.4219 84.9375 17.7969 85.0312 18.1094 85.2188C18.4219 85.4062 18.5781 85.7188 18.5781 86.1562C18.5781 86.9375 18.2969 87.7188 17.7344 88.5C17.1719 89.2812 16.5625 90.125 15.9062 91.0312C15.25 91.9062 14.6406 92.8594 14.0781 93.8906C13.5156 94.9219 13.2344 96.0938 13.2344 97.4062C15.2969 97.4062 17.1562 96.9844 18.8125 96.1406C20.4688 95.2656 21.9688 94.1875 23.3125 92.9062C24.6562 91.625 25.8438 90.2344 26.875 88.7344C27.9062 87.2344 28.8125 85.8438 29.5938 84.5625C30.4062 83.2812 31.0938 82.2188 31.6562 81.375C32.25 80.5 32.75 80.0625 33.1562 80.0625C33.75 80.0625 34.0938 80.25 34.1875 80.625C34.3125 80.9688 34.375 81.4062 34.375 81.9375C34.0938 82.9062 33.7031 84.0469 33.2031 85.3594C32.7031 86.6406 32.1875 88 31.6562 89.4375C31.1562 90.8438 30.6875 92.25 30.25 93.6562C29.8438 95.0625 29.5781 96.3438 29.4531 97.5C29.4531 97.5312 29.4531 97.5781 29.4531 97.6406C29.4844 97.7031 29.5 97.75 29.5 97.7812C30.0625 97.5938 30.5938 97.2656 31.0938 96.7969C31.5938 96.3281 32.0781 95.8594 32.5469 95.3906C33.0469 94.8906 33.5469 94.4531 34.0469 94.0781C34.5469 93.6719 35.0625 93.4688 35.5938 93.4688C35.625 93.4688 35.7344 93.6875 35.9219 94.125C36.1406 94.5625 36.1406 95.0938 35.9219 95.7188C35.6406 95.9375 35.125 96.3125 34.375 96.8438C33.6562 97.375 32.8906 97.9375 32.0781 98.5312C31.2656 99.0938 30.5 99.6562 29.7812 100.219C29.0625 100.75 28.5625 101.156 28.2812 101.438C27.8438 101.875 27.3906 102.5 26.9219 103.312C26.4531 104.125 25.9844 105.031 25.5156 106.031C25.0469 107.062 24.5781 108.141 24.1094 109.266C23.6719 110.391 23.2344 111.484 22.7969 112.547C22.3594 113.641 21.9219 114.641 21.4844 115.547C21.0781 116.484 20.7031 117.25 20.3594 117.844C20.2031 118.094 19.875 118.578 19.375 119.297C18.9062 120.047 18.375 120.844 17.7812 121.688C17.2188 122.531 16.6562 123.328 16.0938 124.078C15.5625 124.859 15.1562 125.406 14.875 125.719C14.75 125.875 14.4062 126.234 13.8438 126.797C13.2812 127.391 12.6406 128.031 11.9219 128.719C11.2344 129.438 10.5469 130.141 9.85938 130.828C9.14062 131.516 8.59375 132.031 8.21875 132.375C7.84375 132.594 7.34375 132.859 6.71875 133.172C6.09375 133.516 5.45312 133.797 4.79688 134.016C4.10938 134.234 3.45312 134.375 2.82812 134.438C2.17188 134.5 1.64062 134.359 1.23438 134.016C0.828125 133.703 0.59375 133.156 0.53125 132.375C0.4375 131.625 0.609375 130.547 1.04688 129.141C1.45312 127.766 2.17188 126.016 3.20312 123.891C4.23438 121.766 5.65625 119.188 7.46875 116.156ZM22.1875 106.078C22.125 106.078 22.0156 106.094 21.8594 106.125C21.7344 106.188 21.6406 106.234 21.5781 106.266C21.5156 106.328 21.375 106.438 21.1562 106.594C20.9375 106.75 20.6875 106.922 20.4062 107.109C20.1562 107.297 19.9062 107.484 19.6562 107.672C19.4375 107.859 19.2812 108 19.1875 108.094C18.3125 108.719 17.3125 109.594 16.1875 110.719C15.0625 111.875 13.8906 113.141 12.6719 114.516C11.4844 115.922 10.3125 117.391 9.15625 118.922C8 120.484 6.96875 121.969 6.0625 123.375C5.125 124.812 4.375 126.125 3.8125 127.312C3.25 128.5 2.95312 129.453 2.92188 130.172C2.89062 130.891 3.1875 131.312 3.8125 131.438C4.4375 131.562 5.5 131.266 7 130.547C7.3125 130.266 7.76562 129.844 8.35938 129.281C8.92188 128.75 9.48438 128.188 10.0469 127.594C10.6406 127.031 11.1719 126.5 11.6406 126C12.1094 125.531 12.3906 125.234 12.4844 125.109C12.6406 124.891 12.8906 124.547 13.2344 124.078C13.5781 123.609 13.9531 123.078 14.3594 122.484C14.7656 121.891 15.1875 121.266 15.625 120.609C16.0625 119.953 16.4688 119.312 16.8438 118.688C17.25 118.094 17.5938 117.562 17.875 117.094C18.1875 116.625 18.4062 116.266 18.5312 116.016C18.8125 115.516 19.1562 114.797 19.5625 113.859C20 112.953 20.4062 112 20.7812 111C21.1562 110.031 21.4844 109.094 21.7656 108.188C22.0469 107.281 22.1875 106.578 22.1875 106.078ZM35.875 98.9531C36.1562 97.1719 36.6875 95.5312 37.4688 94.0312C38.25 92.5312 39.1406 91.2344 40.1406 90.1406C41.1719 89.0156 42.2812 88.0938 43.4688 87.375C44.6562 86.6562 45.8125 86.2031 46.9375 86.0156C48.0625 85.7969 49.0938 85.8438 50.0312 86.1562C51 86.4688 51.7812 87.0938 52.375 88.0312C52.375 88.75 52.2031 89.4375 51.8594 90.0938C51.5469 90.75 51.1875 91.4062 50.7812 92.0625C50.4062 92.7188 50.0469 93.3906 49.7031 94.0781C49.3906 94.7656 49.2344 95.5 49.2344 96.2812C49.2344 97.0938 49.4062 97.75 49.75 98.25C50.125 98.7188 50.7656 98.9531 51.6719 98.9531C52.4219 98.9531 53.1406 98.8438 53.8281 98.625C54.5469 98.4062 55.2656 98.2969 55.9844 98.2969C56.1094 98.2969 56.3125 98.3125 56.5938 98.3438C56.9062 98.3438 57.1094 98.3438 57.2031 98.3438C56.8281 98.875 56.3438 99.3281 55.75 99.7031C55.1562 100.078 54.5312 100.406 53.875 100.688C53.2188 100.938 52.5312 101.125 51.8125 101.25C51.125 101.375 50.4844 101.438 49.8906 101.438C49.3281 101.438 48.8281 101.312 48.3906 101.062C47.9531 100.812 47.5781 100.484 47.2656 100.078C46.9531 99.6719 46.7031 99.2188 46.5156 98.7188C46.3594 98.1875 46.2812 97.6719 46.2812 97.1719C45.8125 97.7031 45.2969 98.2656 44.7344 98.8594C44.2031 99.4219 43.625 99.9375 43 100.406C42.4062 100.875 41.75 101.266 41.0312 101.578C40.3438 101.891 39.625 102.047 38.875 102.047C38.0625 102.047 37.3594 101.75 36.7656 101.156C36.1719 100.531 35.875 99.7969 35.875 98.9531ZM38.9688 97.5C38.9688 97.75 38.9688 98.0312 38.9688 98.3438C39 98.6562 39.2031 98.8594 39.5781 98.9531C40.3594 98.7656 41.25 98.3594 42.25 97.7344C43.25 97.0781 44.1875 96.3281 45.0625 95.4844C45.9375 94.6094 46.6719 93.6875 47.2656 92.7188C47.8594 91.7188 48.1562 90.7656 48.1562 89.8594C48.1562 89.7969 48.1406 89.7031 48.1094 89.5781C48.1094 89.4219 48.1094 89.3125 48.1094 89.25C47.0469 89.25 45.9688 89.4688 44.875 89.9062C43.7812 90.3438 42.7969 90.9531 41.9219 91.7344C41.0469 92.4844 40.3281 93.3594 39.7656 94.3594C39.2344 95.3594 38.9688 96.4062 38.9688 97.5ZM56.4531 99.8906C56.4531 99.6094 56.4531 99.3906 56.4531 99.2344C56.4531 99.0781 56.4688 98.9375 56.5 98.8125C56.5625 98.6562 56.6406 98.5 56.7344 98.3438C56.8281 98.1875 56.9531 97.9844 57.1094 97.7344C57.3594 97.2969 57.8281 96.5312 58.5156 95.4375C59.2031 94.3438 59.9375 93.1875 60.7188 91.9688C61.5 90.75 62.2344 89.5938 62.9219 88.5C63.6406 87.4062 64.1406 86.6406 64.4219 86.2031C64.4531 86.1719 64.5312 86.1562 64.6562 86.1562C64.8125 86.1562 64.9219 86.1562 64.9844 86.1562C65.0469 86.1562 65.1562 86.1562 65.3125 86.1562C65.4688 86.1562 65.5625 86.1719 65.5938 86.2031C65.625 86.2344 65.6875 86.3125 65.7812 86.4375C65.9062 86.5625 66.0312 86.7031 66.1562 86.8594C66.3125 86.9844 66.4375 87.1094 66.5312 87.2344C66.6562 87.3594 66.75 87.4219 66.8125 87.4219C67.0938 87.4219 67.3906 87.3281 67.7031 87.1406C68.0156 86.9531 68.3281 86.75 68.6406 86.5312C68.9844 86.2812 69.3281 86.0625 69.6719 85.875C70.0156 85.6875 70.375 85.5938 70.75 85.5938C71.1562 85.5938 71.5312 85.6875 71.875 85.875C72.2188 86.0625 72.5156 86.2969 72.7656 86.5781C73.0156 86.8594 73.2031 87.1719 73.3281 87.5156C73.4844 87.8594 73.5625 88.2031 73.5625 88.5469C73.5625 89.2656 73.4531 89.9531 73.2344 90.6094C73.0469 91.2656 72.8281 91.9219 72.5781 92.5781C72.3281 93.2031 72.0938 93.8438 71.875 94.5C71.6875 95.125 71.5938 95.7812 71.5938 96.4688C71.5938 97.1562 71.6719 97.6562 71.8281 97.9688C71.9844 98.25 72.4219 98.3906 73.1406 98.3906C73.9844 98.3906 74.7812 98.2656 75.5312 98.0156C76.3125 97.7656 77.1094 97.6406 77.9219 97.6406C77.9219 98.3906 77.6875 99.0156 77.2188 99.5156C76.7812 100.016 76.2188 100.422 75.5312 100.734C74.875 101.016 74.1562 101.219 73.375 101.344C72.625 101.438 71.9375 101.484 71.3125 101.484C70.125 101.484 69.25 101.156 68.6875 100.5C68.1562 99.8125 67.8906 98.9062 67.8906 97.7812C67.8906 97.0312 68.0156 96.3281 68.2656 95.6719C68.5469 95.0156 68.8438 94.375 69.1562 93.75C69.5 93.125 69.8125 92.5 70.0938 91.875C70.375 91.25 70.5156 90.5781 70.5156 89.8594C70.5156 89.6719 70.4844 89.4219 70.4219 89.1094C70.3594 88.7969 70.1562 88.6406 69.8125 88.6406C68.7812 88.6406 67.8438 88.9688 67 89.625C66.1875 90.2812 65.4375 91.1094 64.75 92.1094C64.0938 93.1094 63.4844 94.1875 62.9219 95.3438C62.3906 96.5 61.875 97.5781 61.375 98.5781C60.9062 99.5781 60.4531 100.406 60.0156 101.062C59.5781 101.719 59.125 102.047 58.6562 102.047C58 102.047 57.4688 101.844 57.0625 101.438C56.6562 101.031 56.4531 100.516 56.4531 99.8906ZM67.8906 126.891C67.8906 125.109 68.2031 123.516 68.8281 122.109C69.4219 120.703 70.2188 119.391 71.2188 118.172C72.2188 116.984 73.3594 115.875 74.6406 114.844C75.9219 113.844 77.2344 112.859 78.5781 111.891C79.9219 110.953 81.2344 110 82.5156 109.031C83.7969 108.062 84.9375 107.031 85.9375 105.938C86.9375 104.844 87.7344 103.656 88.3281 102.375C88.9531 101.094 89.2656 99.6719 89.2656 98.1094C89.2656 98.0469 89.2656 97.9062 89.2656 97.6875C89.2656 97.4375 89.25 97.2812 89.2188 97.2188C89 97.4062 88.5781 97.6875 87.9531 98.0625C87.3281 98.4062 86.6562 98.7812 85.9375 99.1875C85.25 99.5625 84.5781 99.9062 83.9219 100.219C83.2656 100.531 82.7969 100.734 82.5156 100.828C82.4844 100.828 82.3594 100.844 82.1406 100.875C81.9531 100.906 81.7188 100.938 81.4375 100.969C81.1875 101 80.9375 101.031 80.6875 101.062C80.4375 101.062 80.2344 101.062 80.0781 101.062C78.6719 100.812 77.7344 100.328 77.2656 99.6094C76.7969 98.8594 76.6719 97.9844 76.8906 96.9844C77.1094 95.9844 77.5938 94.9219 78.3438 93.7969C79.125 92.6406 80.0469 91.5469 81.1094 90.5156C82.2031 89.4531 83.375 88.5156 84.625 87.7031C85.9062 86.8594 87.1406 86.2656 88.3281 85.9219C89.5469 85.5469 90.6562 85.4688 91.6562 85.6875C92.6875 85.875 93.4844 86.4844 94.0469 87.5156C94.2344 88.8281 94.2344 90.0625 94.0469 91.2188C93.8594 92.3438 93.6094 93.4531 93.2969 94.5469C92.9844 95.6406 92.6719 96.75 92.3594 97.875C92.0469 98.9688 91.8594 100.172 91.7969 101.484H92.2188C92.4062 101.297 92.7188 100.969 93.1562 100.5C93.625 100.031 94.1094 99.5469 94.6094 99.0469C95.1406 98.5156 95.6406 98.0312 96.1094 97.5938C96.5781 97.125 96.9062 96.7969 97.0938 96.6094C97.1875 96.5156 97.375 96.3906 97.6562 96.2344C97.9688 96.0781 98.1875 96 98.3125 96V96.1406V96.2344C98.3125 96.2656 98.3281 96.2812 98.3594 96.2812C98.3594 97.4062 98.0312 98.4375 97.375 99.375C96.75 100.312 95.9844 101.188 95.0781 102C94.1719 102.812 93.2344 103.562 92.2656 104.25C91.2969 104.969 90.4844 105.656 89.8281 106.312C89.2969 107.406 88.7188 108.766 88.0938 110.391C87.4688 112.047 86.7812 113.797 86.0312 115.641C85.2812 117.516 84.4375 119.406 83.5 121.312C82.5938 123.25 81.5625 125.031 80.4062 126.656C79.2812 128.281 78.0312 129.672 76.6562 130.828C75.2812 132.016 73.75 132.781 72.0625 133.125C71.25 133.125 70.5781 132.922 70.0469 132.516C69.4844 132.109 69.0469 131.594 68.7344 130.969C68.4219 130.375 68.2031 129.703 68.0781 128.953C67.9531 128.234 67.8906 127.547 67.8906 126.891ZM70.375 129.422C70.625 130.016 70.9219 130.375 71.2656 130.5C71.6094 130.625 72 130.688 72.4375 130.688C73.25 130.688 74.1406 130.266 75.1094 129.422C76.0781 128.578 77.0469 127.484 78.0156 126.141C79.0156 124.828 79.9688 123.359 80.875 121.734C81.7812 120.109 82.5781 118.531 83.2656 117C83.9844 115.469 84.5469 114.062 84.9531 112.781C85.3906 111.531 85.6094 110.594 85.6094 109.969C85.6094 109.906 85.5938 109.797 85.5625 109.641C85.5625 109.516 85.5625 109.422 85.5625 109.359C85.4688 109.422 85.25 109.516 84.9062 109.641C84.5938 109.797 84.4062 109.906 84.3438 109.969C83.0312 110.938 81.5469 112 79.8906 113.156C78.2656 114.344 76.75 115.641 75.3438 117.047C73.9062 118.453 72.7031 119.969 71.7344 121.594C70.7656 123.25 70.2812 125.031 70.2812 126.938C70.2812 127.031 70.2812 127.203 70.2812 127.453C70.2812 127.703 70.2969 127.953 70.3281 128.203C70.3281 128.453 70.3438 128.688 70.375 128.906C70.375 129.156 70.375 129.328 70.375 129.422ZM91.0469 88.0781C90.5469 88.0781 89.8906 88.25 89.0781 88.5938C88.2656 88.9062 87.3906 89.3438 86.4531 89.9062C85.5469 90.4688 84.625 91.1094 83.6875 91.8281C82.75 92.5469 81.8906 93.2969 81.1094 94.0781C80.3594 94.8594 79.75 95.6406 79.2812 96.4219C78.8125 97.2031 78.5781 97.9219 78.5781 98.5781C79.2344 98.5781 80.0312 98.4531 80.9688 98.2031C81.9062 97.9219 82.875 97.5625 83.875 97.125C84.9062 96.6562 85.9219 96.125 86.9219 95.5312C87.9219 94.9062 88.8125 94.25 89.5938 93.5625C90.4062 92.875 91.0625 92.1719 91.5625 91.4531C92.0625 90.7344 92.3125 90.0312 92.3125 89.3438C92.3125 88.5 91.8906 88.0781 91.0469 88.0781Z" fill="#F2F2F2"/>
</svg>
