<svg width="204" height="151" viewBox="0 0 204 151" fill="none" xmlns="http://www.w3.org/2000/svg">
<path d="M63.1562 60.0938C62.9375 60.0312 62.7344 59.9219 62.5469 59.7656C62.3594 59.6406 62.2344 59.4844 62.1719 59.2969C62.0781 59.1094 62.0625 58.9219 62.125 58.7344C62.1562 58.5469 62.3125 58.3906 62.5938 58.2656C63.9688 57.7969 65.2812 57.2969 66.5312 56.7656C67.7812 56.2344 68.9375 55.5938 70 54.8438C71.0938 54.125 72.0781 53.25 72.9531 52.2188C73.8594 51.1875 74.6406 49.9531 75.2969 48.5156L92.3594 12.0938H91.75C91.6875 12.0938 91.3438 12.2344 90.7188 12.5156C90.0938 12.7969 89.3594 13.125 88.5156 13.5C87.7031 13.875 86.8594 14.2656 85.9844 14.6719C85.1094 15.0781 84.4062 15.4219 83.875 15.7031C83.125 16.0781 82.25 16.6094 81.25 17.2969C80.2812 17.9531 79.2656 18.7188 78.2031 19.5938C77.1719 20.4688 76.1562 21.4219 75.1562 22.4531C74.1562 23.4531 73.25 24.4844 72.4375 25.5469C71.6562 26.5781 71.0156 27.6094 70.5156 28.6406C70.0469 29.6719 69.8125 30.625 69.8125 31.5C69.8125 31.8438 69.875 32.1406 70 32.3906C70.1562 32.6406 70.3281 32.8906 70.5156 33.1406C70.7031 33.3594 70.8594 33.6094 70.9844 33.8906C71.1406 34.1406 71.2188 34.4219 71.2188 34.7344C70.5625 34.7344 70 34.625 69.5312 34.4062C69.0625 34.1562 68.6719 33.8438 68.3594 33.4688C68.0781 33.0625 67.8594 32.6094 67.7031 32.1094C67.5781 31.6094 67.5156 31.0938 67.5156 30.5625C67.5156 29.75 67.6562 28.9844 67.9375 28.2656C68.2188 27.5156 68.5781 26.8125 69.0156 26.1562C69.4844 25.4688 70 24.8281 70.5625 24.2344C71.125 23.6094 71.7031 23 72.2969 22.4062C72.7969 21.9062 73.4688 21.2656 74.3125 20.4844C75.1562 19.6719 76 18.875 76.8438 18.0938C77.6875 17.3125 78.4375 16.6406 79.0938 16.0781C79.75 15.4844 80.125 15.1563 80.2188 15.0938L94.7969 7.21875C95.4844 6.8125 96.0781 6.23438 96.5781 5.48438C97.1094 4.73438 97.625 4 98.125 3.28125C98.6562 2.53125 99.25 1.89063 99.9062 1.35938C100.562 0.796875 101.391 0.515625 102.391 0.515625C102.672 0.515625 102.922 0.578125 103.141 0.703125C103.359 0.796875 103.609 0.9375 103.891 1.125C103.922 1.25 103.938 1.51563 103.938 1.92188C103.969 2.29688 103.984 2.54688 103.984 2.67188C103.984 3.07812 103.984 3.40625 103.984 3.65625C103.984 3.875 103.938 4.07812 103.844 4.26562C103.781 4.42188 103.656 4.57812 103.469 4.73438C103.312 4.89063 103.047 5.10938 102.672 5.39062C102.391 5.60937 101.891 5.98437 101.172 6.51562C100.484 7.04688 99.7344 7.67187 98.9219 8.39062C98.1094 9.07812 97.3281 9.8125 96.5781 10.5938C95.8594 11.3438 95.3594 12.0469 95.0781 12.7031L84.4375 33.9375C84.4062 34.0938 84.3125 34.4062 84.1562 34.875C84.0312 35.3125 83.9375 35.6094 83.875 35.7656C83.625 36.2656 83.2969 36.9375 82.8906 37.7812C82.5156 38.5938 82.0938 39.4844 81.625 40.4531C81.1875 41.3906 80.7188 42.375 80.2188 43.4062C79.75 44.4062 79.2969 45.3438 78.8594 46.2188C78.4531 47.0938 78.0938 47.8438 77.7812 48.4688C77.4688 49.125 77.25 49.5469 77.125 49.7344C76.5938 50.7656 75.8281 51.9219 74.8281 53.2031C73.8594 54.4844 72.75 55.6719 71.5 56.7656C70.25 57.8594 68.9062 58.7344 67.4688 59.3906C66.0312 60.0469 64.5938 60.2812 63.1562 60.0938ZM95.3125 42.5625C94.7812 41.375 94.5469 40.2188 94.6094 39.0938C94.6719 37.9375 94.9219 36.8594 95.3594 35.8594C95.8281 34.8281 96.4219 33.9062 97.1406 33.0938C97.8906 32.25 98.6875 31.5312 99.5312 30.9375C100.375 30.3125 101.219 29.8438 102.062 29.5312C102.938 29.2188 103.703 29.0938 104.359 29.1562C105.016 29.1875 105.531 29.4219 105.906 29.8594C106.281 30.2969 106.406 30.9688 106.281 31.875C106.281 33.0938 105.891 34.1562 105.109 35.0625C104.359 35.9688 103.516 36.7812 102.578 37.5C101.672 38.2188 100.828 38.875 100.047 39.4688C99.2969 40.0312 98.9219 40.5625 98.9219 41.0625C98.9219 41.3438 99.0781 41.5625 99.3906 41.7188C99.7344 41.875 100.125 42 100.562 42.0938C101 42.1562 101.438 42.2031 101.875 42.2344C102.312 42.2656 102.625 42.2969 102.812 42.3281C105.75 41.7031 107.953 41.3281 109.422 41.2031C110.891 41.0469 111.812 41.0625 112.188 41.25C112.562 41.4062 112.484 41.6719 111.953 42.0469C111.453 42.3906 110.672 42.7656 109.609 43.1719C108.547 43.5469 107.312 43.8906 105.906 44.2031C104.5 44.5156 103.109 44.7031 101.734 44.7656C100.359 44.7969 99.0781 44.6562 97.8906 44.3438C96.7344 44.0312 95.875 43.4375 95.3125 42.5625ZM103.516 31.875C102.891 31.875 102.297 32.0469 101.734 32.3906C101.172 32.7344 100.656 33.1719 100.188 33.7031C99.75 34.2031 99.375 34.7656 99.0625 35.3906C98.75 35.9844 98.5156 36.5469 98.3594 37.0781C98.4219 37.1094 98.4688 37.125 98.5 37.125H98.6406C99.0781 37.125 99.5781 36.9375 100.141 36.5625C100.703 36.1875 101.234 35.7344 101.734 35.2031C102.234 34.6406 102.656 34.0625 103 33.4688C103.344 32.875 103.516 32.3438 103.516 31.875ZM121.516 41.3906C121.516 40.4531 121.703 39.5938 122.078 38.8125C122.484 38 122.922 37.2344 123.391 36.5156C123.859 35.7969 124.281 35.0781 124.656 34.3594C125.062 33.6406 125.266 32.875 125.266 32.0625C125.266 31.875 125.25 31.6562 125.219 31.4062C125.219 31.125 125.188 30.8594 125.125 30.6094C125.094 30.3594 125 30.1562 124.844 30C124.719 29.8125 124.547 29.7188 124.328 29.7188C124.297 29.7188 124.234 29.7344 124.141 29.7656C124.078 29.7656 124.047 29.7812 124.047 29.8125C123.609 30.4062 123.078 31.0781 122.453 31.8281C121.859 32.5469 121.219 33.2656 120.531 33.9844C119.844 34.7031 119.172 35.3906 118.516 36.0469C117.859 36.7031 117.266 37.25 116.734 37.6875C116.359 38.0312 115.844 38.5 115.188 39.0938C114.562 39.6875 113.922 40.2812 113.266 40.875C112.641 41.4375 112.078 41.9375 111.578 42.375C111.109 42.8125 110.844 43.0312 110.781 43.0312L108.625 41.2031C108.906 41.2031 109.188 41.1406 109.469 41.0156C109.719 40.8906 109.969 40.75 110.219 40.5938C112.094 39.3438 113.781 37.9062 115.281 36.2812C116.812 34.6562 118.312 32.9062 119.781 31.0312C119.844 30.9375 120 30.6719 120.25 30.2344C120.531 29.7656 120.828 29.25 121.141 28.6875C121.453 28.0938 121.766 27.5156 122.078 26.9531C122.391 26.3594 122.625 25.8906 122.781 25.5469C122.969 25.1406 123.078 24.8125 123.109 24.5625C123.172 24.3125 123.219 24.125 123.25 24C123.312 23.8438 123.406 23.7344 123.531 23.6719C123.656 23.6094 123.922 23.5781 124.328 23.5781C124.391 23.5781 124.531 23.5938 124.75 23.625C125 23.6562 125.156 23.6875 125.219 23.7188C125.625 24.5625 125.984 25.3125 126.297 25.9688C126.609 26.625 126.875 27.25 127.094 27.8438C127.312 28.4062 127.469 28.9844 127.562 29.5781C127.688 30.1719 127.75 30.8281 127.75 31.5469C127.344 32.5781 126.891 33.6406 126.391 34.7344C125.891 35.7969 125.469 36.8125 125.125 37.7812C124.781 38.75 124.562 39.625 124.469 40.4062C124.406 41.1875 124.578 41.8125 124.984 42.2812C125.422 42.7188 126.141 42.9531 127.141 42.9844C128.172 43.0156 129.625 42.75 131.5 42.1875C132 42.4375 132.047 42.75 131.641 43.125C131.234 43.4688 130.609 43.7969 129.766 44.1094C128.953 44.4219 128.047 44.6875 127.047 44.9062C126.078 45.0938 125.266 45.1406 124.609 45.0469C124.016 45.0469 123.516 44.9531 123.109 44.7656C122.734 44.5469 122.422 44.2656 122.172 43.9219C121.953 43.5781 121.781 43.1875 121.656 42.75C121.562 42.3125 121.516 41.8594 121.516 41.3906ZM129.625 42.5625C129.094 41.375 128.859 40.2188 128.922 39.0938C128.984 37.9375 129.234 36.8594 129.672 35.8594C130.141 34.8281 130.734 33.9062 131.453 33.0938C132.203 32.25 133 31.5312 133.844 30.9375C134.688 30.3125 135.531 29.8438 136.375 29.5312C137.25 29.2188 138.016 29.0938 138.672 29.1562C139.328 29.1875 139.844 29.4219 140.219 29.8594C140.594 30.2969 140.719 30.9688 140.594 31.875C140.594 33.0938 140.203 34.1562 139.422 35.0625C138.672 35.9688 137.828 36.7812 136.891 37.5C135.984 38.2188 135.141 38.875 134.359 39.4688C133.609 40.0312 133.234 40.5625 133.234 41.0625C133.234 41.3438 133.391 41.5625 133.703 41.7188C134.047 41.875 134.438 42 134.875 42.0938C135.312 42.1562 135.75 42.2031 136.188 42.2344C136.625 42.2656 136.938 42.2969 137.125 42.3281C140.062 41.7031 142.266 41.3281 143.734 41.2031C145.203 41.0469 146.125 41.0625 146.5 41.25C146.875 41.4062 146.797 41.6719 146.266 42.0469C145.766 42.3906 144.984 42.7656 143.922 43.1719C142.859 43.5469 141.625 43.8906 140.219 44.2031C138.812 44.5156 137.422 44.7031 136.047 44.7656C134.672 44.7969 133.391 44.6562 132.203 44.3438C131.047 44.0312 130.188 43.4375 129.625 42.5625ZM137.828 31.875C137.203 31.875 136.609 32.0469 136.047 32.3906C135.484 32.7344 134.969 33.1719 134.5 33.7031C134.062 34.2031 133.688 34.7656 133.375 35.3906C133.062 35.9844 132.828 36.5469 132.672 37.0781C132.734 37.1094 132.781 37.125 132.812 37.125H132.953C133.391 37.125 133.891 36.9375 134.453 36.5625C135.016 36.1875 135.547 35.7344 136.047 35.2031C136.547 34.6406 136.969 34.0625 137.312 33.4688C137.656 32.875 137.828 32.3438 137.828 31.875ZM168.062 45.0469C167.469 45.0469 166.922 44.9375 166.422 44.7188C165.953 44.5 165.562 44.1875 165.25 43.7812C164.938 43.375 164.719 42.9219 164.594 42.4219C164.469 41.8906 164.484 41.3281 164.641 40.7344C164.641 39.7344 164.812 38.8125 165.156 37.9688C165.531 37.0938 165.938 36.2656 166.375 35.4844C166.844 34.6719 167.25 33.875 167.594 33.0938C167.969 32.2812 168.156 31.4219 168.156 30.5156C167.469 30.5156 166.734 30.7344 165.953 31.1719C165.172 31.6094 164.375 32.1875 163.562 32.9062C162.781 33.625 162 34.4375 161.219 35.3438C160.469 36.2188 159.75 37.1094 159.062 38.0156C158.406 38.8906 157.828 39.7344 157.328 40.5469C156.859 41.3594 156.5 42.0312 156.25 42.5625C156.188 42.5938 156.031 42.625 155.781 42.6562C155.531 42.6562 155.375 42.6562 155.312 42.6562C154.812 42.9062 154.5 42.9062 154.375 42.6562C154.281 42.375 154.281 41.9531 154.375 41.3906C154.5 40.8281 154.688 40.2031 154.938 39.5156C155.188 38.7969 155.422 38.125 155.641 37.5C155.891 36.8438 156.078 36.3125 156.203 35.9062C156.328 35.4688 156.344 35.25 156.25 35.25C156.344 35.125 156.453 34.9219 156.578 34.6406C156.703 34.3594 156.828 34.0625 156.953 33.75C157.078 33.4375 157.188 33.1562 157.281 32.9062C157.375 32.625 157.422 32.4062 157.422 32.25C157.422 31.9688 157.312 31.7969 157.094 31.7344C156.906 31.6406 156.719 31.5938 156.531 31.5938C155.969 31.2812 155.359 31.4688 154.703 32.1562C154.078 32.8125 153.391 33.7656 152.641 35.0156C151.922 36.2344 151.125 37.6406 150.25 39.2344C149.406 40.7969 148.469 42.3125 147.438 43.7812C146.719 43.7812 146.172 43.6875 145.797 43.5C145.422 43.3125 145.234 42.8438 145.234 42.0938C145.484 41.75 145.859 41.1094 146.359 40.1719C146.859 39.2031 147.422 38.1406 148.047 36.9844C148.672 35.8281 149.328 34.6562 150.016 33.4688C150.734 32.2812 151.406 31.2812 152.031 30.4688C152.688 29.625 153.266 29.0625 153.766 28.7812C154.297 28.4688 154.719 28.6094 155.031 29.2031C155.562 28.8594 156.141 28.5625 156.766 28.3125C157.422 28.0625 158.078 27.9375 158.734 27.9375C159.172 27.9375 159.531 28.0781 159.812 28.3594C160.125 28.6094 160.359 28.9375 160.516 29.3438C160.703 29.7188 160.844 30.125 160.938 30.5625C161.031 30.9688 161.078 31.3281 161.078 31.6406C161.422 31.4219 161.984 31.0469 162.766 30.5156C163.578 29.9531 164.438 29.3906 165.344 28.8281C166.281 28.2656 167.188 27.7812 168.062 27.375C168.969 26.9375 169.703 26.7188 170.266 26.7188C170.766 26.7188 171.188 26.9062 171.531 27.2812C171.906 27.625 172.094 28.0625 172.094 28.5938C170.969 31.3438 170.078 33.5469 169.422 35.2031C168.797 36.8594 168.375 38.1562 168.156 39.0938C167.969 40 167.969 40.6562 168.156 41.0625C168.375 41.4375 168.75 41.7344 169.281 41.9531C170.125 41.9531 170.938 41.8125 171.719 41.5312C172.5 41.25 173.266 40.9375 174.016 40.5938C174.797 40.25 175.578 39.9375 176.359 39.6562C177.141 39.375 177.969 39.2344 178.844 39.2344C178.844 39.5781 178.75 39.9062 178.562 40.2188C178.406 40.5 178.156 40.7188 177.812 40.875C177.562 41.0312 177.109 41.2812 176.453 41.625C175.828 41.9375 175.141 42.2812 174.391 42.6562C173.641 43 172.922 43.3438 172.234 43.6875C171.578 44.0312 171.109 44.2656 170.828 44.3906C170.203 44.6719 169.719 44.8594 169.375 44.9531C169.062 45.0156 168.625 45.0469 168.062 45.0469ZM174.438 59.1562C175.438 57.5312 176.594 56.0781 177.906 54.7969C179.219 53.5469 180.562 52.3594 181.938 51.2344C183.344 50.1094 184.734 49.0156 186.109 47.9531C187.484 46.8906 188.75 45.75 189.906 44.5312C191.094 43.3125 192.109 41.9688 192.953 40.5C193.797 39 194.375 37.2656 194.688 35.2969C194.688 35.2344 194.672 35.1406 194.641 35.0156C194.641 34.8594 194.641 34.75 194.641 34.6875C193.922 35.5312 193.047 36.4844 192.016 37.5469C191.016 38.6094 189.922 39.6094 188.734 40.5469C187.578 41.4844 186.359 42.2656 185.078 42.8906C183.797 43.5156 182.547 43.8281 181.328 43.8281C181.016 43.8281 180.609 43.8125 180.109 43.7812C179.641 43.7188 179.172 43.6094 178.703 43.4531C178.234 43.2969 177.828 43.0781 177.484 42.7969C177.141 42.5156 176.969 42.1406 176.969 41.6719C176.969 41.2656 177.078 40.6406 177.297 39.7969C177.516 38.9531 177.812 38.0156 178.188 36.9844C178.562 35.9531 178.984 34.9062 179.453 33.8438C179.922 32.7812 180.422 31.8125 180.953 30.9375C181.484 30.0625 182 29.3438 182.5 28.7812C183.031 28.2188 183.516 27.9375 183.953 27.9375C184.391 27.9375 184.766 28.0312 185.078 28.2188C185.391 28.4062 185.547 28.7188 185.547 29.1562C185.547 29.9375 185.266 30.7188 184.703 31.5C184.141 32.2812 183.531 33.125 182.875 34.0312C182.219 34.9062 181.609 35.8594 181.047 36.8906C180.484 37.9219 180.203 39.0938 180.203 40.4062C182.266 40.4062 184.125 39.9844 185.781 39.1406C187.438 38.2656 188.938 37.1875 190.281 35.9062C191.625 34.625 192.812 33.2344 193.844 31.7344C194.875 30.2344 195.781 28.8438 196.562 27.5625C197.375 26.2812 198.062 25.2188 198.625 24.375C199.219 23.5 199.719 23.0625 200.125 23.0625C200.719 23.0625 201.062 23.25 201.156 23.625C201.281 23.9688 201.344 24.4062 201.344 24.9375C201.062 25.9062 200.672 27.0469 200.172 28.3594C199.672 29.6406 199.156 31 198.625 32.4375C198.125 33.8438 197.656 35.25 197.219 36.6562C196.812 38.0625 196.547 39.3438 196.422 40.5C196.422 40.5312 196.422 40.5781 196.422 40.6406C196.453 40.7031 196.469 40.75 196.469 40.7812C197.031 40.5938 197.562 40.2656 198.062 39.7969C198.562 39.3281 199.047 38.8594 199.516 38.3906C200.016 37.8906 200.516 37.4531 201.016 37.0781C201.516 36.6719 202.031 36.4688 202.562 36.4688C202.594 36.4688 202.703 36.6875 202.891 37.125C203.109 37.5625 203.109 38.0938 202.891 38.7188C202.609 38.9375 202.094 39.3125 201.344 39.8438C200.625 40.375 199.859 40.9375 199.047 41.5312C198.234 42.0938 197.469 42.6562 196.75 43.2188C196.031 43.75 195.531 44.1562 195.25 44.4375C194.812 44.875 194.359 45.5 193.891 46.3125C193.422 47.125 192.953 48.0312 192.484 49.0312C192.016 50.0625 191.547 51.1406 191.078 52.2656C190.641 53.3906 190.203 54.4844 189.766 55.5469C189.328 56.6406 188.891 57.6406 188.453 58.5469C188.047 59.4844 187.672 60.25 187.328 60.8438C187.172 61.0938 186.844 61.5781 186.344 62.2969C185.875 63.0469 185.344 63.8438 184.75 64.6875C184.188 65.5312 183.625 66.3281 183.062 67.0781C182.531 67.8594 182.125 68.4062 181.844 68.7188C181.719 68.875 181.375 69.2344 180.812 69.7969C180.25 70.3906 179.609 71.0312 178.891 71.7188C178.203 72.4375 177.516 73.1406 176.828 73.8281C176.109 74.5156 175.562 75.0312 175.188 75.375C174.812 75.5938 174.312 75.8594 173.688 76.1719C173.062 76.5156 172.422 76.7969 171.766 77.0156C171.078 77.2344 170.422 77.375 169.797 77.4375C169.141 77.5 168.609 77.3594 168.203 77.0156C167.797 76.7031 167.562 76.1562 167.5 75.375C167.406 74.625 167.578 73.5469 168.016 72.1406C168.422 70.7656 169.141 69.0156 170.172 66.8906C171.203 64.7656 172.625 62.1875 174.438 59.1562ZM189.156 49.0781C189.094 49.0781 188.984 49.0938 188.828 49.125C188.703 49.1875 188.609 49.2344 188.547 49.2656C188.484 49.3281 188.344 49.4375 188.125 49.5938C187.906 49.75 187.656 49.9219 187.375 50.1094C187.125 50.2969 186.875 50.4844 186.625 50.6719C186.406 50.8594 186.25 51 186.156 51.0938C185.281 51.7188 184.281 52.5938 183.156 53.7188C182.031 54.875 180.859 56.1406 179.641 57.5156C178.453 58.9219 177.281 60.3906 176.125 61.9219C174.969 63.4844 173.938 64.9688 173.031 66.375C172.094 67.8125 171.344 69.125 170.781 70.3125C170.219 71.5 169.922 72.4531 169.891 73.1719C169.859 73.8906 170.156 74.3125 170.781 74.4375C171.406 74.5625 172.469 74.2656 173.969 73.5469C174.281 73.2656 174.734 72.8438 175.328 72.2812C175.891 71.75 176.453 71.1875 177.016 70.5938C177.609 70.0312 178.141 69.5 178.609 69C179.078 68.5312 179.359 68.2344 179.453 68.1094C179.609 67.8906 179.859 67.5469 180.203 67.0781C180.547 66.6094 180.922 66.0781 181.328 65.4844C181.734 64.8906 182.156 64.2656 182.594 63.6094C183.031 62.9531 183.438 62.3125 183.812 61.6875C184.219 61.0938 184.562 60.5625 184.844 60.0938C185.156 59.625 185.375 59.2656 185.5 59.0156C185.781 58.5156 186.125 57.7969 186.531 56.8594C186.969 55.9531 187.375 55 187.75 54C188.125 53.0312 188.453 52.0938 188.734 51.1875C189.016 50.2812 189.156 49.5781 189.156 49.0781Z" fill="#F2F2F2"/>
<path d="M69.6719 115.719C69.6719 115.469 69.75 115.203 69.9062 114.922C70.0625 114.641 70.2656 114.375 70.5156 114.125C70.7656 113.875 71.0312 113.672 71.3125 113.516C71.5938 113.359 71.8594 113.281 72.1094 113.281C72.1719 113.281 72.2656 113.281 72.3906 113.281C72.5469 113.281 72.6562 113.297 72.7188 113.328C72.3438 113.734 72.125 114.141 72.0625 114.547C72.0312 114.953 72.0156 115.391 72.0156 115.859C72.0156 116.578 72.1719 117.172 72.4844 117.641C72.8281 118.078 73.25 118.438 73.75 118.719C74.25 118.969 74.7969 119.141 75.3906 119.234C76.0156 119.359 76.6094 119.422 77.1719 119.422C79.5156 119.422 81.6719 119.109 83.6406 118.484C85.6094 117.828 87.4062 116.953 89.0312 115.859C90.6875 114.734 92.1875 113.422 93.5312 111.922C94.875 110.391 96.1094 108.75 97.2344 107C98.3906 105.219 99.4375 103.375 100.375 101.469C101.344 99.5625 102.25 97.6406 103.094 95.7031H102.953H102.859C102.828 95.7031 102.812 95.6875 102.812 95.6562C101.875 95.6562 100.969 95.9219 100.094 96.4531C99.2188 96.9531 98.3438 97.5312 97.4688 98.1875C96.5938 98.8125 95.7031 99.3906 94.7969 99.9219C93.8906 100.422 92.9531 100.672 91.9844 100.672C91.9844 100.422 92.3438 99.9531 93.0625 99.2656C93.8125 98.5781 94.75 97.7812 95.875 96.875C97 95.9688 98.2031 95.0156 99.4844 94.0156C100.797 93.0156 102 92.1094 103.094 91.2969C104.219 90.4531 105.156 89.7656 105.906 89.2344C106.656 88.6719 107.031 88.3906 107.031 88.3906C107.625 88.3906 108.047 88.6406 108.297 89.1406C108.547 89.6094 108.672 90.0938 108.672 90.5938C108.672 90.6875 108.656 90.8438 108.625 91.0625C108.625 91.2812 108.609 91.4062 108.578 91.4375C107.203 94.4062 106.062 96.875 105.156 98.8438C104.25 100.812 103.516 102.391 102.953 103.578C102.391 104.766 101.969 105.656 101.688 106.25C101.438 106.812 101.266 107.188 101.172 107.375C101.109 107.562 101.094 107.641 101.125 107.609C101.188 107.547 101.266 107.5 101.359 107.469C101.672 107.344 102.281 107.188 103.188 107C104.125 106.781 105.109 106.562 106.141 106.344C107.203 106.125 108.188 105.938 109.094 105.781C110.031 105.594 110.672 105.469 111.016 105.406L111.578 104.844C112.953 101.969 114.359 99.125 115.797 96.3125C117.266 93.4688 118.703 90.625 120.109 87.7812C120.703 87.2812 121.094 87.1719 121.281 87.4531C121.469 87.7031 121.547 88.125 121.516 88.7188C121.516 89.3125 121.422 89.9531 121.234 90.6406C121.047 91.2969 120.875 91.7812 120.719 92.0938L109.188 117.547C108.906 118.172 108.609 118.547 108.297 118.672C107.984 118.797 107.594 118.859 107.125 118.859C106.844 118.859 106.531 118.844 106.188 118.812C105.844 118.781 105.625 118.578 105.531 118.203C106.125 117.672 106.672 117 107.172 116.188C107.703 115.344 108.156 114.484 108.531 113.609C108.906 112.703 109.188 111.812 109.375 110.938C109.594 110.031 109.703 109.234 109.703 108.547C109.641 108.547 109.547 108.531 109.422 108.5C109.328 108.469 109.25 108.469 109.188 108.5C108.219 108.812 107.188 109.062 106.094 109.25C105 109.406 103.906 109.594 102.812 109.812C101.719 110 100.672 110.266 99.6719 110.609C98.6719 110.953 97.7969 111.453 97.0469 112.109C95.2344 113.641 93.6719 115.016 92.3594 116.234C91.0469 117.422 89.7031 118.438 88.3281 119.281C86.9531 120.125 85.4062 120.766 83.6875 121.203C81.9688 121.641 79.8281 121.859 77.2656 121.859C76.2344 121.859 75.2656 121.75 74.3594 121.531C73.4531 121.344 72.6406 121.016 71.9219 120.547C71.2344 120.078 70.6875 119.453 70.2812 118.672C69.875 117.891 69.6719 116.906 69.6719 115.719ZM117.812 116.656C117.812 116.188 117.953 115.531 118.234 114.688C118.516 113.812 118.875 112.875 119.312 111.875C119.781 110.875 120.297 109.859 120.859 108.828C121.453 107.797 122.047 106.859 122.641 106.016C123.234 105.172 123.797 104.484 124.328 103.953C124.859 103.422 125.328 103.156 125.734 103.156C126.609 103.156 127.047 103.578 127.047 104.422C127.047 104.797 126.969 105.109 126.812 105.359C126.688 105.609 126.531 105.844 126.344 106.062C126.156 106.281 125.953 106.5 125.734 106.719C125.516 106.906 125.328 107.141 125.172 107.422C124.891 107.891 124.547 108.531 124.141 109.344C123.734 110.156 123.328 110.953 122.922 111.734C122.547 112.484 122.219 113.156 121.938 113.75C121.656 114.344 121.516 114.672 121.516 114.734V115.344C122.734 115.125 123.906 114.609 125.031 113.797C126.156 112.953 127.219 111.969 128.219 110.844C129.25 109.719 130.219 108.547 131.125 107.328C132.062 106.078 132.938 104.938 133.75 103.906C134.562 102.844 135.328 101.969 136.047 101.281C136.766 100.594 137.438 100.25 138.062 100.25C138.062 101.406 137.828 102.453 137.359 103.391C136.891 104.328 136.375 105.25 135.812 106.156C135.281 107.062 134.781 108 134.312 108.969C133.844 109.906 133.609 110.969 133.609 112.156C133.609 112.656 133.906 113.109 134.5 113.516C135.125 113.891 135.828 114.219 136.609 114.5C137.422 114.75 138.203 114.953 138.953 115.109C139.703 115.266 140.219 115.359 140.5 115.391V116.609C139.781 116.641 138.891 116.656 137.828 116.656C136.766 116.625 135.703 116.5 134.641 116.281C133.578 116.062 132.609 115.703 131.734 115.203C130.891 114.672 130.328 113.906 130.047 112.906C129.234 113.438 128.453 114.062 127.703 114.781C126.953 115.5 126.172 116.172 125.359 116.797C124.578 117.422 123.75 117.953 122.875 118.391C122 118.828 121.047 119.047 120.016 119.047C119.391 119.047 118.859 118.781 118.422 118.25C118.016 117.719 117.812 117.188 117.812 116.656ZM140.594 115.953C140.875 114.172 141.406 112.531 142.188 111.031C142.969 109.531 143.859 108.234 144.859 107.141C145.891 106.016 147 105.094 148.188 104.375C149.375 103.656 150.531 103.203 151.656 103.016C152.781 102.797 153.812 102.844 154.75 103.156C155.719 103.469 156.5 104.094 157.094 105.031C157.094 105.75 156.922 106.438 156.578 107.094C156.266 107.75 155.906 108.406 155.5 109.062C155.125 109.719 154.766 110.391 154.422 111.078C154.109 111.766 153.953 112.5 153.953 113.281C153.953 114.094 154.125 114.75 154.469 115.25C154.844 115.719 155.484 115.953 156.391 115.953C157.141 115.953 157.859 115.844 158.547 115.625C159.266 115.406 159.984 115.297 160.703 115.297C160.828 115.297 161.031 115.312 161.312 115.344C161.625 115.344 161.828 115.344 161.922 115.344C161.547 115.875 161.062 116.328 160.469 116.703C159.875 117.078 159.25 117.406 158.594 117.688C157.938 117.938 157.25 118.125 156.531 118.25C155.844 118.375 155.203 118.438 154.609 118.438C154.047 118.438 153.547 118.312 153.109 118.062C152.672 117.812 152.297 117.484 151.984 117.078C151.672 116.672 151.422 116.219 151.234 115.719C151.078 115.188 151 114.672 151 114.172C150.531 114.703 150.016 115.266 149.453 115.859C148.922 116.422 148.344 116.938 147.719 117.406C147.125 117.875 146.469 118.266 145.75 118.578C145.062 118.891 144.344 119.047 143.594 119.047C142.781 119.047 142.078 118.75 141.484 118.156C140.891 117.531 140.594 116.797 140.594 115.953ZM143.688 114.5C143.688 114.75 143.688 115.031 143.688 115.344C143.719 115.656 143.922 115.859 144.297 115.953C145.078 115.766 145.969 115.359 146.969 114.734C147.969 114.078 148.906 113.328 149.781 112.484C150.656 111.609 151.391 110.688 151.984 109.719C152.578 108.719 152.875 107.766 152.875 106.859C152.875 106.797 152.859 106.703 152.828 106.578C152.828 106.422 152.828 106.312 152.828 106.25C151.766 106.25 150.688 106.469 149.594 106.906C148.5 107.344 147.516 107.953 146.641 108.734C145.766 109.484 145.047 110.359 144.484 111.359C143.953 112.359 143.688 113.406 143.688 114.5ZM161.172 116.891C161.172 116.609 161.172 116.391 161.172 116.234C161.172 116.078 161.188 115.938 161.219 115.812C161.281 115.656 161.359 115.5 161.453 115.344C161.547 115.188 161.672 114.984 161.828 114.734C162.078 114.297 162.547 113.531 163.234 112.438C163.922 111.344 164.656 110.188 165.438 108.969C166.219 107.75 166.953 106.594 167.641 105.5C168.359 104.406 168.859 103.641 169.141 103.203C169.172 103.172 169.25 103.156 169.375 103.156C169.531 103.156 169.641 103.156 169.703 103.156C169.766 103.156 169.875 103.156 170.031 103.156C170.188 103.156 170.281 103.172 170.312 103.203C170.344 103.234 170.406 103.312 170.5 103.438C170.625 103.562 170.75 103.703 170.875 103.859C171.031 103.984 171.156 104.109 171.25 104.234C171.375 104.359 171.469 104.422 171.531 104.422C171.812 104.422 172.109 104.328 172.422 104.141C172.734 103.953 173.047 103.75 173.359 103.531C173.703 103.281 174.047 103.062 174.391 102.875C174.734 102.688 175.094 102.594 175.469 102.594C175.875 102.594 176.25 102.688 176.594 102.875C176.938 103.062 177.234 103.297 177.484 103.578C177.734 103.859 177.922 104.172 178.047 104.516C178.203 104.859 178.281 105.203 178.281 105.547C178.281 106.266 178.172 106.953 177.953 107.609C177.766 108.266 177.547 108.922 177.297 109.578C177.047 110.203 176.812 110.844 176.594 111.5C176.406 112.125 176.312 112.781 176.312 113.469C176.312 114.156 176.391 114.656 176.547 114.969C176.703 115.25 177.141 115.391 177.859 115.391C178.703 115.391 179.5 115.266 180.25 115.016C181.031 114.766 181.828 114.641 182.641 114.641C182.641 115.391 182.406 116.016 181.938 116.516C181.5 117.016 180.938 117.422 180.25 117.734C179.594 118.016 178.875 118.219 178.094 118.344C177.344 118.438 176.656 118.484 176.031 118.484C174.844 118.484 173.969 118.156 173.406 117.5C172.875 116.812 172.609 115.906 172.609 114.781C172.609 114.031 172.734 113.328 172.984 112.672C173.266 112.016 173.562 111.375 173.875 110.75C174.219 110.125 174.531 109.5 174.812 108.875C175.094 108.25 175.234 107.578 175.234 106.859C175.234 106.672 175.203 106.422 175.141 106.109C175.078 105.797 174.875 105.641 174.531 105.641C173.5 105.641 172.562 105.969 171.719 106.625C170.906 107.281 170.156 108.109 169.469 109.109C168.812 110.109 168.203 111.188 167.641 112.344C167.109 113.5 166.594 114.578 166.094 115.578C165.625 116.578 165.172 117.406 164.734 118.062C164.297 118.719 163.844 119.047 163.375 119.047C162.719 119.047 162.188 118.844 161.781 118.438C161.375 118.031 161.172 117.516 161.172 116.891ZM172.609 143.891C172.609 142.109 172.922 140.516 173.547 139.109C174.141 137.703 174.938 136.391 175.938 135.172C176.938 133.984 178.078 132.875 179.359 131.844C180.641 130.844 181.953 129.859 183.297 128.891C184.641 127.953 185.953 127 187.234 126.031C188.516 125.062 189.656 124.031 190.656 122.938C191.656 121.844 192.453 120.656 193.047 119.375C193.672 118.094 193.984 116.672 193.984 115.109C193.984 115.047 193.984 114.906 193.984 114.688C193.984 114.438 193.969 114.281 193.938 114.219C193.719 114.406 193.297 114.688 192.672 115.062C192.047 115.406 191.375 115.781 190.656 116.188C189.969 116.562 189.297 116.906 188.641 117.219C187.984 117.531 187.516 117.734 187.234 117.828C187.203 117.828 187.078 117.844 186.859 117.875C186.672 117.906 186.438 117.938 186.156 117.969C185.906 118 185.656 118.031 185.406 118.062C185.156 118.062 184.953 118.062 184.797 118.062C183.391 117.812 182.453 117.328 181.984 116.609C181.516 115.859 181.391 114.984 181.609 113.984C181.828 112.984 182.312 111.922 183.062 110.797C183.844 109.641 184.766 108.547 185.828 107.516C186.922 106.453 188.094 105.516 189.344 104.703C190.625 103.859 191.859 103.266 193.047 102.922C194.266 102.547 195.375 102.469 196.375 102.688C197.406 102.875 198.203 103.484 198.766 104.516C198.953 105.828 198.953 107.062 198.766 108.219C198.578 109.344 198.328 110.453 198.016 111.547C197.703 112.641 197.391 113.75 197.078 114.875C196.766 115.969 196.578 117.172 196.516 118.484H196.938C197.125 118.297 197.438 117.969 197.875 117.5C198.344 117.031 198.828 116.547 199.328 116.047C199.859 115.516 200.359 115.031 200.828 114.594C201.297 114.125 201.625 113.797 201.812 113.609C201.906 113.516 202.094 113.391 202.375 113.234C202.688 113.078 202.906 113 203.031 113V113.141V113.234C203.031 113.266 203.047 113.281 203.078 113.281C203.078 114.406 202.75 115.438 202.094 116.375C201.469 117.312 200.703 118.188 199.797 119C198.891 119.812 197.953 120.562 196.984 121.25C196.016 121.969 195.203 122.656 194.547 123.312C194.016 124.406 193.438 125.766 192.812 127.391C192.188 129.047 191.5 130.797 190.75 132.641C190 134.516 189.156 136.406 188.219 138.312C187.312 140.25 186.281 142.031 185.125 143.656C184 145.281 182.75 146.672 181.375 147.828C180 149.016 178.469 149.781 176.781 150.125C175.969 150.125 175.297 149.922 174.766 149.516C174.203 149.109 173.766 148.594 173.453 147.969C173.141 147.375 172.922 146.703 172.797 145.953C172.672 145.234 172.609 144.547 172.609 143.891ZM175.094 146.422C175.344 147.016 175.641 147.375 175.984 147.5C176.328 147.625 176.719 147.688 177.156 147.688C177.969 147.688 178.859 147.266 179.828 146.422C180.797 145.578 181.766 144.484 182.734 143.141C183.734 141.828 184.688 140.359 185.594 138.734C186.5 137.109 187.297 135.531 187.984 134C188.703 132.469 189.266 131.062 189.672 129.781C190.109 128.531 190.328 127.594 190.328 126.969C190.328 126.906 190.312 126.797 190.281 126.641C190.281 126.516 190.281 126.422 190.281 126.359C190.188 126.422 189.969 126.516 189.625 126.641C189.312 126.797 189.125 126.906 189.062 126.969C187.75 127.938 186.266 129 184.609 130.156C182.984 131.344 181.469 132.641 180.062 134.047C178.625 135.453 177.422 136.969 176.453 138.594C175.484 140.25 175 142.031 175 143.938C175 144.031 175 144.203 175 144.453C175 144.703 175.016 144.953 175.047 145.203C175.047 145.453 175.062 145.688 175.094 145.906C175.094 146.156 175.094 146.328 175.094 146.422ZM195.766 105.078C195.266 105.078 194.609 105.25 193.797 105.594C192.984 105.906 192.109 106.344 191.172 106.906C190.266 107.469 189.344 108.109 188.406 108.828C187.469 109.547 186.609 110.297 185.828 111.078C185.078 111.859 184.469 112.641 184 113.422C183.531 114.203 183.297 114.922 183.297 115.578C183.953 115.578 184.75 115.453 185.688 115.203C186.625 114.922 187.594 114.562 188.594 114.125C189.625 113.656 190.641 113.125 191.641 112.531C192.641 111.906 193.531 111.25 194.312 110.562C195.125 109.875 195.781 109.172 196.281 108.453C196.781 107.734 197.031 107.031 197.031 106.344C197.031 105.5 196.609 105.078 195.766 105.078Z" fill="#F2F2F2"/>
</svg>
